<svg width="55" height="55" viewBox="0 0 55 55" fill="none" xmlns="http://www.w3.org/2000/svg">
<path d="M46.6367 4.92683H8.37066C7.94051 4.92086 7.5134 4.99967 7.11372 5.15878C6.71404 5.31789 6.34961 5.55418 6.04126 5.85414C5.7329 6.15411 5.48666 6.51188 5.31658 6.90702C5.14651 7.30216 5.05594 7.72693 5.05005 8.15708V46.8749C5.05594 47.3051 5.14651 47.7299 5.31658 48.125C5.48666 48.5201 5.7329 48.8779 6.04126 49.1779C6.34961 49.4778 6.71404 49.7141 7.11372 49.8732C7.5134 50.0323 7.94051 50.1112 8.37066 50.1052H46.6367C47.0669 50.1112 47.494 50.0323 47.8937 49.8732C48.2934 49.7141 48.6578 49.4778 48.9661 49.1779C49.2745 48.8779 49.5207 48.5201 49.6908 48.125C49.8609 47.7299 49.9515 47.3051 49.9573 46.8749V8.15708C49.9515 7.72693 49.8609 7.30216 49.6908 6.90702C49.5207 6.51188 49.2745 6.15411 48.9661 5.85414C48.6578 5.55418 48.2934 5.31789 47.8937 5.15878C47.494 4.99967 47.0669 4.92086 46.6367 4.92683ZM18.6713 42.7411H11.8946V22.4109H18.6713V42.7411ZM15.2829 19.5646C14.3483 19.5646 13.452 19.1934 12.7912 18.5325C12.1303 17.8716 11.759 16.9753 11.759 16.0407C11.759 15.1061 12.1303 14.2098 12.7912 13.5489C13.452 12.8881 14.3483 12.5168 15.2829 12.5168C15.7792 12.4605 16.2818 12.5097 16.7577 12.6611C17.2337 12.8125 17.6723 13.0628 18.0448 13.3954C18.4174 13.7281 18.7154 14.1357 18.9195 14.5916C19.1236 15.0474 19.2291 15.5413 19.2291 16.0407C19.2291 16.5402 19.1236 17.034 18.9195 17.4898C18.7154 17.9457 18.4174 18.3533 18.0448 18.686C17.6723 19.0187 17.2337 19.2689 16.7577 19.4203C16.2818 19.5717 15.7792 19.6209 15.2829 19.5646ZM43.1128 42.7411H36.3361V31.8305C36.3361 29.0973 35.3647 27.3127 32.9025 27.3127C32.1405 27.3183 31.3985 27.5573 30.7765 27.9976C30.1545 28.4378 29.6824 29.0581 29.4238 29.7749C29.247 30.3059 29.1704 30.865 29.1979 31.4239V42.7185H22.4211C22.4211 42.7185 22.4211 24.2406 22.4211 22.3883H29.1979V25.2571C29.8135 24.1889 30.7089 23.3088 31.7876 22.7118C32.8663 22.1147 34.0875 21.8232 35.3196 21.8687C39.8374 21.8687 43.1128 24.7827 43.1128 31.0399V42.7411Z" fill="#D5FF3F"/>
</svg>
